<svg width="94" height="26" viewBox="0 0 94 26" fill="none" xmlns="http://www.w3.org/2000/svg">
<path d="M1.35612 20.4575V22.9318H0.842896V16.8565H2.9125C3.54395 16.8565 4.04188 17.0179 4.40628 17.3405C4.77347 17.6632 4.95706 18.1069 4.95706 18.6716C4.95706 19.2418 4.78043 19.6827 4.42715 19.9943C4.07665 20.3031 3.56759 20.4575 2.89998 20.4575H1.35612ZM1.35612 20.0235H2.9125C3.41043 20.0235 3.79013 19.9053 4.05161 19.6688C4.3131 19.4324 4.44384 19.1028 4.44384 18.6799C4.44384 18.2599 4.3131 17.9261 4.05161 17.6785C3.79291 17.4282 3.42434 17.3002 2.94588 17.2946H1.35612V20.0235Z" fill="white"/>
<path d="M5.65806 20.6077C5.65806 20.1737 5.74151 19.7829 5.90841 19.4352C6.0781 19.0875 6.31594 18.8176 6.62193 18.6257C6.9307 18.431 7.2798 18.3336 7.66925 18.3336C8.2701 18.3336 8.7569 18.545 9.12965 18.9678C9.5024 19.3879 9.68878 19.9456 9.68878 20.641V20.7454C9.68878 21.1821 9.60393 21.5757 9.43425 21.9262C9.26735 22.2739 9.0309 22.5424 8.72491 22.7315C8.41892 22.9207 8.06981 23.0152 7.67759 23.0152C7.07952 23.0152 6.59272 22.8052 6.21719 22.3852C5.84443 21.9624 5.65806 21.4032 5.65806 20.7078V20.6077ZM6.15877 20.7454C6.15877 21.285 6.29786 21.7287 6.57603 22.0764C6.85698 22.4213 7.22417 22.5938 7.67759 22.5938C8.12823 22.5938 8.49264 22.4213 8.77081 22.0764C9.05176 21.7287 9.19224 21.2711 9.19224 20.7036V20.6077C9.19224 20.2627 9.12826 19.947 9.0003 19.6605C8.87234 19.374 8.69292 19.1528 8.46204 18.997C8.23115 18.8385 7.96689 18.7592 7.66925 18.7592C7.22417 18.7592 6.86115 18.9345 6.5802 19.285C6.29925 19.6327 6.15877 20.0889 6.15877 20.6536V20.7454Z" fill="white"/>
<path d="M11.8043 21.8928L11.8794 22.2809L11.9795 21.872L13.0644 18.4171H13.49L14.5624 21.8428L14.6792 22.3184L14.7752 21.8803L15.7015 18.4171H16.2189L14.9045 22.9318H14.4789L13.3189 19.3517L13.2647 19.1055L13.2104 19.3559L12.0713 22.9318H11.6457L10.3355 18.4171H10.8488L11.8043 21.8928Z" fill="white"/>
<path d="M18.9144 23.0152C18.5305 23.0152 18.1828 22.9207 17.8712 22.7315C17.5624 22.5424 17.3218 22.2795 17.1494 21.9429C16.9769 21.6035 16.8907 21.2238 16.8907 20.8038V20.6244C16.8907 20.1904 16.9741 19.7996 17.141 19.4519C17.3107 19.1041 17.5458 18.8315 17.8462 18.634C18.1466 18.4337 18.4721 18.3336 18.8226 18.3336C19.3706 18.3336 19.8045 18.5214 20.1244 18.8969C20.4471 19.2697 20.6084 19.7801 20.6084 20.4282V20.7078H17.3872V20.8038C17.3872 21.3156 17.5332 21.7426 17.8253 22.0848C18.1202 22.4241 18.4902 22.5938 18.9352 22.5938C19.2023 22.5938 19.4373 22.5451 19.6404 22.4478C19.8462 22.3504 20.0326 22.1946 20.1995 21.9804L20.5125 22.2183C20.1453 22.7496 19.6126 23.0152 18.9144 23.0152ZM18.8226 18.7592C18.447 18.7592 18.1299 18.8969 17.8712 19.1723C17.6153 19.4477 17.4595 19.8177 17.4039 20.2822H20.1119V20.228C20.098 19.794 19.9742 19.4407 19.7405 19.1681C19.5069 18.8955 19.2009 18.7592 18.8226 18.7592Z" fill="white"/>
<path d="M23.6669 18.8427C23.5612 18.8232 23.4486 18.8135 23.329 18.8135C23.0174 18.8135 22.7531 18.9011 22.5362 19.0763C22.322 19.2488 22.169 19.5005 22.0772 19.8316V22.9318H21.5806V18.4171H22.0688L22.0772 19.1347C22.3414 18.6007 22.7657 18.3336 23.3498 18.3336C23.4889 18.3336 23.5988 18.3517 23.6795 18.3879L23.6669 18.8427Z" fill="white"/>
<path d="M26.1246 23.0152C25.7407 23.0152 25.393 22.9207 25.0814 22.7315C24.7727 22.5424 24.5321 22.2795 24.3596 21.9429C24.1871 21.6035 24.1009 21.2238 24.1009 20.8038V20.6244C24.1009 20.1904 24.1843 19.7996 24.3512 19.4519C24.5209 19.1041 24.756 18.8315 25.0564 18.634C25.3568 18.4337 25.6823 18.3336 26.0328 18.3336C26.5808 18.3336 27.0147 18.5214 27.3346 18.8969C27.6573 19.2697 27.8187 19.7801 27.8187 20.4282V20.7078H24.5974V20.8038C24.5974 21.3156 24.7435 21.7426 25.0355 22.0848C25.3304 22.4241 25.7004 22.5938 26.1455 22.5938C26.4125 22.5938 26.6476 22.5451 26.8506 22.4478C27.0565 22.3504 27.2428 22.1946 27.4097 21.9804L27.7227 22.2183C27.3555 22.7496 26.8228 23.0152 26.1246 23.0152ZM26.0328 18.7592C25.6573 18.7592 25.3401 18.8969 25.0814 19.1723C24.8255 19.4477 24.6697 19.8177 24.6141 20.2822H27.3221V20.228C27.3082 19.794 27.1844 19.4407 26.9508 19.1681C26.7171 18.8955 26.4111 18.7592 26.0328 18.7592Z" fill="white"/>
<path d="M28.5906 20.6327C28.5906 19.9317 28.7464 19.374 29.0579 18.9595C29.3723 18.5422 29.7979 18.3336 30.3347 18.3336C30.9439 18.3336 31.4085 18.5742 31.7284 19.0555V16.5227H32.2249V22.9318H31.7576L31.7367 22.3309C31.4168 22.7871 30.9467 23.0152 30.3264 23.0152C29.8062 23.0152 29.3862 22.8066 29.0663 22.3894C28.7491 21.9693 28.5906 21.4032 28.5906 20.6911V20.6327ZM29.0955 20.7203C29.0955 21.2961 29.2109 21.751 29.4418 22.0848C29.6727 22.4158 29.9981 22.5813 30.4182 22.5813C31.0329 22.5813 31.4697 22.3101 31.7284 21.7676V19.648C31.4697 19.061 31.0357 18.7676 30.4265 18.7676C30.0065 18.7676 29.6796 18.9331 29.446 19.2641C29.2123 19.5923 29.0955 20.0777 29.0955 20.7203Z" fill="white"/>
<path d="M39.2515 20.7203C39.2515 21.4241 39.0958 21.9832 38.7842 22.3977C38.4727 22.8094 38.054 23.0152 37.5283 23.0152C36.8996 23.0152 36.4239 22.7816 36.1012 22.3143L36.0804 22.9318H35.613V16.5227H36.1096V19.0722C36.4267 18.5798 36.8968 18.3336 37.5199 18.3336C38.054 18.3336 38.4754 18.5381 38.7842 18.947C39.0958 19.3531 39.2515 19.9192 39.2515 20.6452V20.7203ZM38.7508 20.6327C38.7508 20.0374 38.6354 19.5784 38.4045 19.2557C38.1736 18.9303 37.8482 18.7676 37.4281 18.7676C37.1082 18.7676 36.837 18.8468 36.6145 19.0054C36.3919 19.1612 36.2236 19.3907 36.1096 19.6939V21.7301C36.3599 22.2976 36.8022 22.5813 37.4365 22.5813C37.8482 22.5813 38.1695 22.4186 38.4003 22.0931C38.634 21.7676 38.7508 21.2808 38.7508 20.6327Z" fill="white"/>
<path d="M41.7384 22.2141L43.0569 18.4171H43.5952L41.6675 23.6996L41.5673 23.9332C41.3198 24.4812 40.9373 24.7552 40.4199 24.7552C40.3003 24.7552 40.1723 24.7357 40.036 24.6968L40.0318 24.2837L40.2905 24.3087C40.5353 24.3087 40.7328 24.2475 40.883 24.1252C41.036 24.0055 41.1654 23.7983 41.2711 23.5034L41.4922 22.8942L39.7898 18.4171H40.3364L41.7384 22.2141Z" fill="white"/>
<g clip-path="url(#clip0_787_67173)">
<path d="M48.5437 23.8302C49.2652 24.2364 50.077 24.4555 50.905 24.4675C52.248 24.4675 53.4365 23.9576 53.4365 22.3804V21.8229C53.1437 22.2309 52.7561 22.5616 52.3071 22.7864C51.858 23.0112 51.361 23.1234 50.859 23.1134C48.5437 23.1134 47 21.3131 47 18.7639C47 16.1986 48.6053 14.3824 50.8898 14.3824C51.4016 14.3739 51.9077 14.4899 52.3648 14.7202C52.8219 14.9506 53.2162 15.2885 53.5138 15.7049V14.5896H55.1035V21.8067C55.1035 24.9296 53.2667 25.9652 50.9206 25.9652C49.8962 25.952 48.892 25.6779 48.003 25.1686L48.5437 23.8302ZM51.0747 15.9278C49.6857 15.9278 48.6822 17.0749 48.6822 18.7478C48.6822 20.4527 49.7165 21.568 51.0904 21.568C52.5411 21.568 53.483 20.3888 53.483 18.7478C53.483 17.0431 52.4638 15.9278 51.0747 15.9278V15.9278Z" fill="white"/>
<path d="M60.3138 14.3824C62.7529 14.3824 64.1884 16.1191 64.1884 18.7319C64.191 18.8755 64.1858 19.0191 64.1728 19.1622H58.1067C58.0974 19.4902 58.1563 19.8165 58.2795 20.1207C58.4027 20.4248 58.5877 20.7001 58.8227 20.9292C59.0576 21.1582 59.3375 21.3361 59.6447 21.4515C59.9519 21.5669 60.2797 21.6174 60.6074 21.5998C61.0457 21.6084 61.4791 21.5062 61.8676 21.303C62.256 21.0997 62.5869 20.8018 62.8297 20.4368L63.9413 21.2969C63.5918 21.8708 63.0961 22.3414 62.5048 22.6605C61.9136 22.9797 61.2481 23.136 60.5765 23.1134C58.0602 23.1134 56.3932 21.2969 56.3932 18.7798C56.3932 16.1986 58.1067 14.3824 60.3138 14.3824ZM62.475 17.9671C62.4833 17.6836 62.4335 17.4013 62.3285 17.1378C62.2235 16.8743 62.0655 16.6351 61.8645 16.435C61.6634 16.235 61.4235 16.0783 61.1595 15.9746C60.8954 15.8709 60.6129 15.8224 60.3295 15.8321C59.7604 15.8306 59.2138 16.0543 58.8089 16.4542C58.404 16.8542 58.1738 17.398 58.1683 17.9671H62.475Z" fill="white"/>
<path d="M72.2157 17.9035V22.9062H70.5487V17.7601C70.5487 16.613 69.8539 15.9437 68.9277 15.9437C67.863 15.9437 67.1682 16.7564 67.1682 17.8876V22.9062H65.4856V14.5896H67.1374V15.6729C67.3689 15.2774 67.7005 14.95 68.0988 14.7234C68.4971 14.4969 68.948 14.3792 69.4062 14.3824C71.4901 14.3824 72.2157 16.087 72.2157 17.9035Z" fill="white"/>
<path d="M80.2938 19.5923V14.5896H81.9608V19.7356C81.9608 20.8827 82.6556 21.5518 83.5818 21.5518C84.6465 21.5518 85.3413 20.7553 85.3413 19.6082V14.5896H87.0239V22.9062H85.3721V21.8229C85.1431 22.2206 84.8121 22.5499 84.4132 22.7767C84.0143 23.0036 83.5621 23.1199 83.1033 23.1134C81.0194 23.1134 80.2938 21.4085 80.2938 19.5923Z" fill="white"/>
<path d="M89.2305 20.596C89.4265 20.9321 89.7087 21.2097 90.0479 21.4001C90.3872 21.5906 90.7712 21.687 91.1602 21.6793C91.8702 21.6793 92.3947 21.313 92.3947 20.6437C92.3947 19.0506 88.4745 19.624 88.4745 16.7405C88.4745 15.2746 89.6782 14.3824 91.237 14.3824C91.7766 14.3608 92.311 14.4951 92.7763 14.7691C93.2416 15.0432 93.6182 15.4454 93.861 15.9278L92.7033 16.7246C92.5543 16.4415 92.3298 16.2052 92.0546 16.0421C91.7794 15.8789 91.4644 15.7952 91.1445 15.8003C90.5271 15.8003 90.0642 16.135 90.0642 16.7084C90.0642 18.3018 94 17.6327 94 20.5642C94 22.1096 92.7342 23.1134 91.0829 23.1134C90.4919 23.1404 89.9054 22.9989 89.3916 22.7056C88.8779 22.4123 88.458 21.9791 88.1809 21.4564L89.2305 20.596Z" fill="white"/>
<path d="M77.1576 16.473V20.901C77.1576 21.1643 77.1057 21.4251 77.005 21.6684C76.9042 21.9116 76.7565 22.1327 76.5703 22.3189C76.3841 22.5051 76.1631 22.6528 75.9198 22.7535C75.6765 22.8543 75.4158 22.9062 75.1525 22.9062V18.4781C75.1525 17.9463 75.3637 17.4363 75.7398 17.0603C76.1158 16.6842 76.6258 16.473 77.1576 16.473V16.473Z" fill="white"/>
<path d="M78.3705 13.8512C78.7177 13.648 79.0345 13.3966 79.3113 13.1046C79.9057 12.4804 80.3016 11.6939 80.449 10.8446C80.5964 9.99534 80.4886 9.12147 80.1394 8.33343C79.7901 7.54541 79.215 6.87865 78.4868 6.41747H78.4867C77.5102 5.79937 76.3281 5.59437 75.2005 5.84751C74.0728 6.1007 73.0918 6.79137 72.4731 7.76764H72.4731C72.0119 8.49585 71.7771 9.34447 71.7982 10.2062C71.8193 11.0679 72.0954 11.9039 72.5917 12.6087C73.0586 13.2668 73.6993 13.7822 74.4421 14.0972C74.5381 13.4024 74.8994 12.7717 75.4504 12.3377C75.4031 12.3228 75.3547 12.3126 75.3083 12.2947C74.8741 12.1271 74.4994 11.8346 74.2314 11.4541C73.9636 11.0736 73.8145 10.6223 73.803 10.157C73.7916 9.69184 73.9184 9.23372 74.1673 8.84057C74.5013 8.31353 75.0309 7.94064 75.6397 7.80397C76.2485 7.66729 76.8866 7.77801 77.4139 8.11173C77.807 8.3607 78.1175 8.72064 78.3061 9.14607C78.4946 9.57152 78.5528 10.0433 78.4733 10.5019C78.3937 10.9603 78.18 11.3849 77.8591 11.722C77.6842 11.9055 77.4808 12.0597 77.2567 12.1785V12.1785L76.1996 12.7372C75.9012 12.8963 75.6485 13.1289 75.4652 13.413C75.2819 13.6971 75.1741 14.0233 75.152 14.3606V15.4704C75.5846 15.0447 76.1086 14.7233 76.6842 14.5307C77.2743 14.381 77.8415 14.1525 78.3705 13.8512V13.8512Z" fill="white"/>
<path d="M76.6695 0.724641C76.6037 0.653893 76.5241 0.597424 76.4356 0.558775C76.3472 0.520126 76.2517 0.500129 76.1551 0.5C76.0585 0.500123 75.9631 0.520115 75.8746 0.558775C75.7861 0.597435 75.7064 0.653932 75.6407 0.724703C75.5752 0.79562 75.525 0.879266 75.4932 0.970444C75.4615 1.06162 75.4488 1.15838 75.4561 1.25466L75.7198 3.55293C75.727 3.66477 75.7755 3.76994 75.856 3.84791C75.9365 3.92588 76.0431 3.97106 76.1551 3.97463C76.2671 3.97106 76.3737 3.92588 76.4542 3.84791C76.5347 3.76994 76.5833 3.66477 76.5904 3.55293L76.8536 1.25937C76.8615 1.16235 76.8492 1.06479 76.8175 0.972768C76.7858 0.880743 76.7354 0.796242 76.6695 0.724641V0.724641Z" fill="white"/>
<path d="M71.7286 5.10052L70.2929 3.29256C70.2271 3.21482 70.1451 3.15234 70.0526 3.10945C69.9602 3.06656 69.8596 3.04429 69.7577 3.04419C69.6656 3.04396 69.5743 3.06197 69.4893 3.09722C69.4042 3.13247 69.327 3.18427 69.2621 3.24957C69.1939 3.31793 69.1405 3.39959 69.1053 3.4895C69.07 3.57941 69.0537 3.67562 69.0572 3.77212C69.0611 3.8686 69.0847 3.96328 69.1267 4.05022C69.1687 4.13715 69.2282 4.21448 69.3015 4.27743L71.113 5.7161C71.2007 5.78744 71.3099 5.82717 71.4229 5.82888C71.4779 5.82906 71.5324 5.81839 71.5832 5.79738C71.634 5.77637 71.6802 5.74545 71.719 5.7065C71.7957 5.62477 71.8392 5.51739 71.841 5.40534C71.8427 5.29329 71.8026 5.18463 71.7286 5.10052V5.10052Z" fill="white"/>
<path d="M82.9289 3.24957C82.8639 3.18427 82.7868 3.13247 82.7017 3.09722C82.6166 3.06196 82.5255 3.04396 82.4334 3.04419C82.3323 3.04415 82.2323 3.06599 82.1404 3.10823C82.0485 3.15047 81.9669 3.21211 81.9011 3.28889L80.4624 5.10052C80.3883 5.18463 80.3483 5.2933 80.35 5.40534C80.3518 5.51739 80.3953 5.62477 80.472 5.7065C80.5108 5.74546 80.5569 5.77631 80.6077 5.79732C80.6585 5.81833 80.713 5.82907 80.768 5.82888C80.8811 5.82717 80.9902 5.78744 81.078 5.7161L82.8859 4.28042C82.9601 4.21737 83.0204 4.13966 83.063 4.05217C83.1057 3.96468 83.1297 3.86931 83.1337 3.77206C83.1373 3.67557 83.1209 3.57939 83.0857 3.4895C83.0504 3.39961 82.997 3.31793 82.9289 3.24957V3.24957Z" fill="white"/>
<path d="M69.5849 9.24444L67.2913 8.98121C67.2684 8.97937 67.2502 8.9787 67.2322 8.9787C67.0465 8.97903 66.8684 9.05301 66.7371 9.18444C66.6058 9.31587 66.5321 9.49402 66.532 9.67978C66.5321 9.86555 66.6059 10.0437 66.7372 10.1751C66.8685 10.3065 67.0465 10.3805 67.2323 10.3809C67.2502 10.3809 67.2684 10.3802 67.2866 10.3788L69.5849 10.1151C69.6968 10.1079 69.8019 10.0594 69.8799 9.97891C69.9579 9.89843 70.0031 9.79179 70.0067 9.67978C70.0031 9.56776 69.9579 9.46108 69.8799 9.38058C69.8019 9.30009 69.6967 9.25156 69.5849 9.24444V9.24444Z" fill="white"/>
<path d="M85.0781 8.9787C85.06 8.9787 85.0418 8.97939 85.0236 8.98078L82.7253 9.24444C82.6135 9.25156 82.5083 9.30009 82.4303 9.38058C82.3523 9.46108 82.3072 9.56776 82.3036 9.67978C82.3072 9.79178 82.3524 9.89843 82.4304 9.97891C82.5084 10.0594 82.6135 10.1079 82.7253 10.1151L85.0189 10.3783C85.0419 10.3802 85.06 10.3809 85.0779 10.3809C85.2637 10.3805 85.4418 10.3065 85.5731 10.1751C85.7044 10.0437 85.7782 9.86555 85.7783 9.67978C85.7782 9.49403 85.7044 9.31587 85.5732 9.18444C85.4419 9.05301 85.2639 8.97903 85.0781 8.9787V8.9787Z" fill="white"/>
</g>
<defs>
<clipPath id="clip0_787_67173">
<rect width="47" height="25.4651" fill="white" transform="translate(47 0.5)"/>
</clipPath>
</defs>
</svg>
