<svg width="160" height="160" viewBox="0 0 160 160" fill="none" xmlns="http://www.w3.org/2000/svg">
<circle cx="80" cy="80" r="79" stroke="#666666" stroke-width="2"/>
<circle cx="80" cy="80" r="5" fill="#666666"/>
<path d="M77.6738 19H76.2559V12.1504L74.1641 12.8652V11.6641L77.4922 10.4395H77.6738V19Z" fill="#666666"/>
<path d="M86.375 19H80.6387V18.0215L83.4805 14.9219C83.8906 14.4648 84.1816 14.084 84.3535 13.7793C84.5293 13.4707 84.6172 13.1621 84.6172 12.8535C84.6172 12.4473 84.502 12.1191 84.2715 11.8691C84.0449 11.6191 83.7383 11.4941 83.3516 11.4941C82.8906 11.4941 82.5332 11.6348 82.2793 11.916C82.0254 12.1973 81.8984 12.582 81.8984 13.0703H80.4746C80.4746 12.5508 80.5918 12.084 80.8262 11.6699C81.0645 11.252 81.4023 10.9277 81.8398 10.6973C82.2812 10.4668 82.7891 10.3516 83.3633 10.3516C84.1914 10.3516 84.8438 10.5605 85.3203 10.9785C85.8008 11.3926 86.041 11.9668 86.041 12.7012C86.041 13.127 85.9199 13.5742 85.6777 14.043C85.4395 14.5078 85.0469 15.0371 84.5 15.6309L82.4141 17.8633H86.375V19Z" fill="#666666"/>
<path d="M81.1582 140.428V141.605H80.9824C80.1855 141.617 79.5488 141.836 79.0723 142.262C78.5957 142.688 78.3125 143.291 78.2227 144.072C78.6797 143.592 79.2637 143.352 79.9746 143.352C80.7285 143.352 81.3223 143.617 81.7559 144.148C82.1934 144.68 82.4121 145.365 82.4121 146.205C82.4121 147.072 82.1562 147.775 81.6445 148.314C81.1367 148.85 80.4688 149.117 79.6406 149.117C78.7891 149.117 78.0977 148.803 77.5664 148.174C77.0391 147.545 76.7754 146.721 76.7754 145.701V145.215C76.7754 143.719 77.1387 142.547 77.8652 141.699C78.5957 140.852 79.6445 140.428 81.0117 140.428H81.1582ZM79.6289 144.5C79.3164 144.5 79.0293 144.588 78.7676 144.764C78.5098 144.939 78.3203 145.174 78.1992 145.467V145.9C78.1992 146.533 78.332 147.037 78.5977 147.412C78.8633 147.783 79.207 147.969 79.6289 147.969C80.0508 147.969 80.3848 147.811 80.6309 147.494C80.877 147.178 81 146.762 81 146.246C81 145.73 80.875 145.311 80.625 144.986C80.375 144.662 80.043 144.5 79.6289 144.5Z" fill="#666666"/>
<path d="M12.7656 80.4316C12.2891 80.9355 11.7324 81.1875 11.0957 81.1875C10.3457 81.1875 9.74805 80.9258 9.30273 80.4023C8.85742 79.875 8.63477 79.1836 8.63477 78.3281C8.63477 77.7656 8.74805 77.2559 8.97461 76.7988C9.20117 76.3418 9.52344 75.9863 9.94141 75.7324C10.3594 75.4785 10.8438 75.3516 11.3945 75.3516C12.2539 75.3516 12.9355 75.6719 13.4395 76.3125C13.9434 76.9531 14.1953 77.8105 14.1953 78.8848V79.2832C14.1953 80.8223 13.8477 81.9961 13.1523 82.8047C12.457 83.6133 11.4199 84.0234 10.041 84.0352H9.87109V82.8574H10.0762C10.916 82.8457 11.5605 82.6445 12.0098 82.2539C12.459 81.8594 12.7109 81.252 12.7656 80.4316ZM11.3945 80.0742C11.6797 80.0742 11.9473 79.9922 12.1973 79.8281C12.4473 79.6641 12.6406 79.4375 12.7773 79.1484V78.5918C12.7773 77.9629 12.6484 77.457 12.3906 77.0742C12.1328 76.6914 11.7988 76.5 11.3887 76.5C10.9785 76.5 10.6504 76.6699 10.4043 77.0098C10.1621 77.3457 10.041 77.7715 10.041 78.2871C10.041 78.8223 10.1641 79.2539 10.4102 79.582C10.6562 79.9102 10.9844 80.0742 11.3945 80.0742Z" fill="#666666"/>
<path d="M147.375 79.084H148.242C148.68 79.0801 149.025 78.9668 149.279 78.7441C149.537 78.5215 149.666 78.1992 149.666 77.7773C149.666 77.3711 149.559 77.0566 149.344 76.834C149.133 76.6074 148.809 76.4941 148.371 76.4941C147.988 76.4941 147.674 76.6055 147.428 76.8281C147.182 77.0469 147.059 77.334 147.059 77.6895H145.635C145.635 77.252 145.75 76.8535 145.98 76.4941C146.215 76.1348 146.539 75.8555 146.953 75.6562C147.371 75.4531 147.838 75.3516 148.354 75.3516C149.205 75.3516 149.873 75.5664 150.357 75.9961C150.846 76.4219 151.09 77.0156 151.09 77.7773C151.09 78.1602 150.967 78.5215 150.721 78.8613C150.479 79.1973 150.164 79.4512 149.777 79.623C150.246 79.7832 150.602 80.0352 150.844 80.3789C151.09 80.7227 151.213 81.1328 151.213 81.6094C151.213 82.375 150.949 82.9844 150.422 83.4375C149.898 83.8906 149.209 84.1172 148.354 84.1172C147.533 84.1172 146.861 83.8984 146.338 83.4609C145.814 83.0234 145.553 82.4414 145.553 81.7148H146.977C146.977 82.0898 147.102 82.3945 147.352 82.6289C147.605 82.8633 147.945 82.9805 148.371 82.9805C148.812 82.9805 149.16 82.8633 149.414 82.6289C149.668 82.3945 149.795 82.0547 149.795 81.6094C149.795 81.1602 149.662 80.8145 149.396 80.5723C149.131 80.3301 148.736 80.209 148.213 80.209H147.375V79.084Z" fill="#666666"/>
<path d="M114.584 27H113.166V20.1504L111.074 20.8652V19.6641L114.402 18.4395H114.584V27Z" fill="#666666"/>
<path d="M43.6738 27H42.2559V20.1504L40.1641 20.8652V19.6641L43.4922 18.4395H43.6738V27Z" fill="#666666"/>
<path d="M50.4941 27H49.0762V20.1504L46.9844 20.8652V19.6641L50.3125 18.4395H50.4941V27Z" fill="#666666"/>
<path d="M49.4062 135.26L45.9961 143H44.502L47.9062 135.611H43.4941V134.469H49.4062V135.26Z" fill="#666666"/>
<path d="M111.109 138.77L111.572 134.469H116.154V135.699H112.756L112.521 137.738C112.916 137.512 113.361 137.398 113.857 137.398C114.67 137.398 115.301 137.658 115.75 138.178C116.203 138.697 116.43 139.396 116.43 140.275C116.43 141.143 116.18 141.834 115.68 142.35C115.18 142.861 114.494 143.117 113.623 143.117C112.842 143.117 112.193 142.896 111.678 142.455C111.166 142.01 110.889 141.424 110.846 140.697H112.223C112.277 141.111 112.426 141.43 112.668 141.652C112.91 141.871 113.227 141.98 113.617 141.98C114.055 141.98 114.395 141.824 114.637 141.512C114.883 141.199 115.006 140.773 115.006 140.234C115.006 139.715 114.871 139.305 114.602 139.004C114.332 138.699 113.961 138.547 113.488 138.547C113.23 138.547 113.012 138.582 112.832 138.652C112.652 138.719 112.457 138.852 112.246 139.051L111.109 138.77Z" fill="#666666"/>
<path d="M141.465 50H135.729V49.0215L138.57 45.9219C138.98 45.4648 139.271 45.084 139.443 44.7793C139.619 44.4707 139.707 44.1621 139.707 43.8535C139.707 43.4473 139.592 43.1191 139.361 42.8691C139.135 42.6191 138.828 42.4941 138.441 42.4941C137.98 42.4941 137.623 42.6348 137.369 42.916C137.115 43.1973 136.988 43.582 136.988 44.0703H135.564C135.564 43.5508 135.682 43.084 135.916 42.6699C136.154 42.252 136.492 41.9277 136.93 41.6973C137.371 41.4668 137.879 41.3516 138.453 41.3516C139.281 41.3516 139.934 41.5605 140.41 41.9785C140.891 42.3926 141.131 42.9668 141.131 43.7012C141.131 44.127 141.01 44.5742 140.768 45.043C140.529 45.5078 140.137 46.0371 139.59 46.6309L137.504 48.8633H141.465V50Z" fill="#666666"/>
<path d="M21.6738 50H20.2559V43.1504L18.1641 43.8652V42.6641L21.4922 41.4395H21.6738V50Z" fill="#666666"/>
<path d="M30.1992 46.4082C30.1992 47.6348 29.9688 48.5605 29.5078 49.1855C29.0508 49.8066 28.3535 50.1172 27.416 50.1172C26.4941 50.1172 25.7988 49.8145 25.3301 49.209C24.8652 48.5996 24.627 47.6992 24.6152 46.5078V45.0312C24.6152 43.8047 24.8438 42.8848 25.3008 42.2715C25.7617 41.6582 26.4629 41.3516 27.4043 41.3516C28.3379 41.3516 29.0332 41.6504 29.4902 42.248C29.9512 42.8457 30.1875 43.7402 30.1992 44.9316V46.4082ZM28.7754 44.8145C28.7754 44.0137 28.666 43.4277 28.4473 43.0566C28.2285 42.6816 27.8809 42.4941 27.4043 42.4941C26.9395 42.4941 26.5977 42.6719 26.3789 43.0273C26.1602 43.3789 26.0449 43.9297 26.0332 44.6797V46.6133C26.0332 47.4102 26.1445 48.0039 26.3672 48.3945C26.5898 48.7852 26.9395 48.9805 27.416 48.9805C27.873 48.9805 28.2109 48.8008 28.4297 48.4414C28.6484 48.0781 28.7637 47.5117 28.7754 46.7422V44.8145Z" fill="#666666"/>
<path d="M23.1016 110.719C23.1016 111.137 22.9941 111.51 22.7793 111.838C22.5645 112.162 22.2715 112.418 21.9004 112.605C22.3457 112.812 22.6875 113.096 22.9258 113.455C23.168 113.814 23.2891 114.221 23.2891 114.674C23.2891 115.424 23.0352 116.02 22.5273 116.461C22.0195 116.898 21.3438 117.117 20.5 117.117C19.6523 117.117 18.9727 116.896 18.4609 116.455C17.9531 116.014 17.6992 115.42 17.6992 114.674C17.6992 114.217 17.8203 113.807 18.0625 113.443C18.3047 113.08 18.6445 112.801 19.082 112.605C18.7148 112.418 18.4238 112.162 18.209 111.838C17.998 111.51 17.8926 111.137 17.8926 110.719C17.8926 109.992 18.127 109.416 18.5957 108.99C19.0645 108.564 19.6973 108.352 20.4941 108.352C21.2949 108.352 21.9297 108.564 22.3984 108.99C22.8672 109.416 23.1016 109.992 23.1016 110.719ZM21.8652 114.604C21.8652 114.182 21.7383 113.842 21.4844 113.584C21.2344 113.322 20.9023 113.191 20.4883 113.191C20.0742 113.191 19.7422 113.32 19.4922 113.578C19.2461 113.836 19.123 114.178 19.123 114.604C19.123 115.021 19.2441 115.355 19.4863 115.605C19.7324 115.855 20.0703 115.98 20.5 115.98C20.9297 115.98 21.2637 115.859 21.502 115.617C21.7441 115.375 21.8652 115.037 21.8652 114.604ZM21.6836 110.771C21.6836 110.4 21.5762 110.096 21.3613 109.857C21.1465 109.615 20.8574 109.494 20.4941 109.494C20.1309 109.494 19.8438 109.609 19.6328 109.84C19.4219 110.066 19.3164 110.377 19.3164 110.771C19.3164 111.162 19.4219 111.473 19.6328 111.703C19.8477 111.934 20.1367 112.049 20.5 112.049C20.8633 112.049 21.1504 111.934 21.3613 111.703C21.5762 111.473 21.6836 111.162 21.6836 110.771Z" fill="#666666"/>
<path d="M140.545 113.959H141.605V115.102H140.545V117H139.121V115.102H135.436L135.395 114.234L139.074 108.469H140.545V113.959ZM136.889 113.959H139.121V110.396L139.016 110.584L136.889 113.959Z" fill="#666666"/>
</svg>
